<svg xmlns="http://www.w3.org/2000/svg" xmlns:xlink="http://www.w3.org/1999/xlink" width="2500" zoomAndPan="magnify" viewBox="0 0 1874.88 299.999988" height="400" preserveAspectRatio="xMidYMid meet" version="1.0"><defs><g/><clipPath id="d27b94ceb3"><path d="M 0 0.0078125 L 1874.761719 0.0078125 L 1874.761719 299.988281 L 0 299.988281 Z M 0 0.0078125 " clip-rule="nonzero"/></clipPath></defs><g clip-path="url(#d27b94ceb3)"><path stroke-linecap="butt" transform="matrix(3.696935, 0, 0, 3.696935, 13.206063, -38.543727)" fill="none" stroke-linejoin="miter" d="M 27.227205 81.095667 C 25.611635 81.095667 23.720288 81.011137 21.554221 80.844191 C 19.399776 80.676189 17.167141 80.419431 14.857373 80.071803 C 12.559228 79.724176 10.356179 79.312095 8.249282 78.833447 C 6.143441 78.342119 4.305982 77.773658 2.73796 77.127008 L 2.73796 53.446076 C 5.43128 55.660749 8.908612 57.377754 13.168897 58.599204 C 17.441862 59.819599 21.882829 60.430324 26.490742 60.430324 C 28.896662 60.430324 30.770046 60.322549 32.110895 60.106999 C 33.463366 59.891449 34.139602 59.460348 34.139602 58.813698 C 34.139602 58.132179 33.571141 57.635568 32.43422 57.323866 C 31.308922 57.000541 29.824373 56.779708 27.98163 56.659253 C 26.150511 56.528232 24.133426 56.36657 21.930377 56.175322 C 19.728384 55.983017 17.508429 55.642786 15.269454 55.151459 C 13.043159 54.661188 11.009169 53.936347 9.16537 52.979051 C 7.33425 52.021755 5.849701 50.698869 4.71278 49.011449 C 3.587481 47.31135 3.02536 45.138943 3.02536 42.494227 C 3.02536 38.91546 4.090432 36.024552 6.220574 33.82256 C 8.363397 31.607888 11.295513 29.985978 15.017979 28.956832 C 18.740446 27.926629 22.95424 27.412056 27.658305 27.412056 C 29.920525 27.412056 32.445843 27.598021 35.234259 27.968894 C 38.035354 28.339767 40.770939 28.85434 43.439957 29.512613 C 46.108975 30.170887 48.328931 30.943275 50.10088 31.828721 L 47.676997 53.086826 C 45.127377 51.518805 42.146656 50.303693 38.735892 49.442549 C 35.324071 48.580349 31.93127 48.149248 28.555374 48.149248 C 26.150511 48.149248 24.198936 48.299288 22.702765 48.598311 C 21.206593 48.897334 20.458507 49.388662 20.458507 50.070181 C 20.458507 50.800304 21.020628 51.327557 22.145927 51.650882 C 23.271225 51.97315 24.767397 52.183418 26.634442 52.278513 C 28.501486 52.374665 30.549213 52.500403 32.775508 52.655726 C 35.013426 52.799426 37.24606 53.068864 39.472355 53.464039 C 41.69865 53.846535 43.74532 54.481563 45.612365 55.367009 C 47.479409 56.252455 48.975581 57.491868 50.10088 59.083136 C 51.226178 60.67546 51.788299 62.746432 51.788299 65.296052 C 51.788299 68.778666 50.783455 71.699159 48.771654 74.057531 C 46.760909 76.403224 43.918605 78.162494 40.243687 79.33534 C 36.569824 80.508187 32.230293 81.095667 27.227205 81.095667 Z M 99.070916 28.525732 L 99.286466 51.237744 L 83.253338 50.519244 L 86.790897 79.999953 L 67.076511 79.999953 L 70.542219 50.519244 L 54.580942 51.237744 L 54.724642 28.525732 Z M 126.280952 81.095667 C 118.82334 81.095667 112.995033 79.26983 108.792861 75.619213 C 104.604426 71.968597 102.509152 66.689731 102.509152 59.783674 L 102.509152 28.525732 L 120.894312 28.525732 L 119.278742 49.406624 C 119.087494 52.206663 119.566143 54.439298 120.714687 56.103472 C 121.87591 57.766589 123.731332 58.599204 126.280952 58.599204 C 128.87812 58.599204 130.763128 57.766589 131.935974 56.103472 C 133.10882 54.439298 133.575846 52.206663 133.33705 49.406624 L 131.720424 28.525732 L 150.105584 28.525732 L 150.105584 59.783674 C 150.105584 66.594636 148.016649 71.849199 143.839837 75.547363 C 139.674647 79.245528 133.820981 81.095667 126.280952 81.095667 Z M 176.421722 79.999953 L 154.06896 79.999953 L 154.06896 28.525732 L 176.421722 28.525732 C 182.059837 28.525732 186.912886 29.50733 190.98298 31.470527 C 195.052017 33.421045 198.20074 36.299273 200.427035 40.106269 C 202.664953 43.900586 203.783912 48.591972 203.783912 54.181483 C 203.783912 59.772051 202.664953 64.481399 200.427035 68.311641 C 198.20074 72.13026 195.052017 75.03279 190.98298 77.019233 C 186.912886 79.006732 182.059837 79.999953 176.421722 79.999953 Z M 178.630054 50.213881 L 170.9104 50.213881 L 170.9104 58.239954 L 178.630054 58.239954 C 181.179674 58.239954 183.203098 57.921912 184.69927 57.287941 C 186.195442 56.641291 186.943528 55.630107 186.943528 54.253333 C 186.943528 52.889239 186.195442 51.878055 184.69927 51.219782 C 183.203098 50.548829 181.179674 50.213881 178.630054 50.213881 Z M 249.871493 49.191074 L 223.766679 48.454611 L 223.766679 51.471257 L 243.048908 50.734794 L 243.048908 57.341829 L 223.766679 56.605365 L 223.766679 59.783674 L 251.505025 58.455504 L 251.505025 79.999953 L 207.158751 79.999953 L 207.158751 28.525732 L 249.871493 28.525732 Z M 305.764492 79.999953 L 290.108578 79.999953 L 273.033624 51.327557 L 272.082668 51.614957 L 276.785676 79.999953 L 254.953827 79.999953 L 254.953827 28.525732 L 271.058805 28.525732 L 287.594882 51.327557 L 288.707502 51.022194 L 284.8836 28.525732 L 305.764492 28.525732 Z M 353.635645 28.525732 L 353.851195 51.237744 L 337.818068 50.519244 L 341.355626 79.999953 L 321.64124 79.999953 L 325.106949 50.519244 L 309.145671 51.237744 L 309.289371 28.525732 Z M 356.642781 50.878494 L 356.642781 28.525732 L 397.524403 28.525732 L 397.524403 50.878494 L 384.507921 49.854631 L 384.741434 58.669998 L 397.524403 57.647191 L 397.524403 79.999953 L 356.642781 79.999953 L 356.642781 57.647191 L 369.444769 58.669998 L 369.66032 49.854631 Z M 420.181471 79.999953 L 401.059848 79.999953 L 401.059848 28.525732 L 443.270697 28.525732 L 443.270697 50.285731 L 417.667776 48.957562 L 417.667776 52.637763 L 436.951062 51.902357 L 436.951062 61.614793 L 417.667776 60.591987 Z M 472.30974 48.885712 L 475.182685 28.525732 L 498.558254 28.525732 L 478.934737 59.783674 L 482.309576 79.999953 L 461.124377 79.999953 L 464.589029 59.783674 L 444.8757 28.525732 L 468.198438 28.525732 L 471.124214 48.885712 Z M 472.30974 48.885712 " stroke="#000000" stroke-width="5.516235" stroke-opacity="1" stroke-miterlimit="4"/></g><g fill="#c1ff72" fill-opacity="1"><g transform="translate(17.884997, 257.21111)"><g><path d="M 95.96875 4.078125 C 89.988281 4.078125 83.007812 3.757812 75.03125 3.125 C 67.0625 2.488281 58.816406 1.535156 50.296875 0.265625 C 41.773438 -0.992188 33.617188 -2.53125 25.828125 -4.34375 C 18.035156 -6.15625 11.238281 -8.242188 5.4375 -10.609375 L 5.4375 -98.140625 C 15.40625 -89.984375 28.273438 -83.640625 44.046875 -79.109375 C 59.816406 -74.578125 76.21875 -72.3125 93.25 -72.3125 C 102.132812 -72.3125 109.066406 -72.71875 114.046875 -73.53125 C 119.035156 -74.351562 121.53125 -75.941406 121.53125 -78.296875 C 121.53125 -80.835938 119.441406 -82.695312 115.265625 -83.875 C 111.097656 -85.050781 105.613281 -85.863281 98.8125 -86.3125 C 92.019531 -86.769531 84.546875 -87.359375 76.390625 -88.078125 C 68.234375 -88.804688 60.03125 -90.078125 51.78125 -91.890625 C 43.539062 -93.703125 36.019531 -96.375 29.21875 -99.90625 C 22.425781 -103.445312 16.945312 -108.34375 12.78125 -114.59375 C 8.613281 -120.84375 6.53125 -128.863281 6.53125 -138.65625 C 6.53125 -151.882812 10.46875 -162.578125 18.34375 -170.734375 C 26.226562 -178.890625 37.054688 -184.867188 50.828125 -188.671875 C 64.609375 -192.484375 80.203125 -194.390625 97.609375 -194.390625 C 105.941406 -194.390625 115.273438 -193.707031 125.609375 -192.34375 C 135.941406 -190.988281 146.046875 -189.085938 155.921875 -186.640625 C 165.796875 -184.191406 174 -181.335938 180.53125 -178.078125 L 171.546875 -99.5 C 162.128906 -105.300781 151.117188 -109.785156 138.515625 -112.953125 C 125.921875 -116.128906 113.367188 -117.71875 100.859375 -117.71875 C 91.984375 -117.71875 84.78125 -117.171875 79.25 -116.078125 C 73.71875 -114.992188 70.953125 -113.1875 70.953125 -110.65625 C 70.953125 -107.9375 73.035156 -105.988281 77.203125 -104.8125 C 81.378906 -103.632812 86.910156 -102.863281 93.796875 -102.5 C 100.679688 -102.132812 108.25 -101.679688 116.5 -101.140625 C 124.75 -100.597656 132.992188 -99.597656 141.234375 -98.140625 C 149.484375 -96.691406 157.050781 -94.335938 163.9375 -91.078125 C 170.820312 -87.816406 176.347656 -83.238281 180.515625 -77.34375 C 184.691406 -71.457031 186.78125 -63.800781 186.78125 -54.375 C 186.78125 -41.507812 183.0625 -30.722656 175.625 -22.015625 C 168.195312 -13.316406 157.6875 -6.789062 144.09375 -2.4375 C 130.5 1.90625 114.457031 4.078125 95.96875 4.078125 Z M 95.96875 4.078125 "/></g></g></g><g fill="#c1ff72" fill-opacity="1"><g transform="translate(210.075828, 257.21111)"><g><path d="M 169.375 -190.3125 L 170.1875 -106.296875 L 110.921875 -109.015625 L 123.96875 0 L 51.109375 0 L 63.890625 -109.015625 L 4.890625 -106.296875 L 5.4375 -190.3125 Z M 169.375 -190.3125 "/></g></g></g><g fill="#c1ff72" fill-opacity="1"><g transform="translate(385.14075, 257.21111)"><g><path d="M 94.890625 4.078125 C 67.335938 4.078125 45.8125 -2.671875 30.3125 -16.171875 C 14.8125 -29.679688 7.0625 -49.210938 7.0625 -74.765625 L 7.0625 -190.3125 L 75.03125 -190.3125 L 69.0625 -113.09375 C 68.332031 -102.769531 70.097656 -94.523438 74.359375 -88.359375 C 78.617188 -82.191406 85.460938 -79.109375 94.890625 -79.109375 C 104.492188 -79.109375 111.46875 -82.191406 115.8125 -88.359375 C 120.164062 -94.523438 121.890625 -102.769531 120.984375 -113.09375 L 115 -190.3125 L 182.96875 -190.3125 L 182.96875 -74.765625 C 182.96875 -49.566406 175.265625 -30.125 159.859375 -16.4375 C 144.453125 -2.757812 122.796875 4.078125 94.890625 4.078125 Z M 94.890625 4.078125 "/></g></g></g><g fill="#c1ff72" fill-opacity="1"><g transform="translate(575.156837, 257.21111)"><g><path d="M 90.265625 0 L 7.609375 0 L 7.609375 -190.3125 L 90.265625 -190.3125 C 111.109375 -190.3125 129.050781 -186.6875 144.09375 -179.4375 C 159.132812 -172.1875 170.78125 -161.535156 179.03125 -147.484375 C 187.28125 -133.441406 191.40625 -116.085938 191.40625 -95.421875 C 191.40625 -74.765625 187.28125 -57.363281 179.03125 -43.21875 C 170.78125 -29.082031 159.132812 -18.34375 144.09375 -11 C 129.050781 -3.664062 111.109375 0 90.265625 0 Z M 98.421875 -110.109375 L 69.875 -110.109375 L 69.875 -80.46875 L 98.421875 -80.46875 C 107.847656 -80.46875 115.320312 -81.644531 120.84375 -84 C 126.375 -86.363281 129.140625 -90.082031 129.140625 -95.15625 C 129.140625 -100.226562 126.375 -103.988281 120.84375 -106.4375 C 115.320312 -108.882812 107.847656 -110.109375 98.421875 -110.109375 Z M 98.421875 -110.109375 "/></g></g></g><g fill="#c1ff72" fill-opacity="1"><g transform="translate(771.425266, 257.21111)"><g><path d="M 165.578125 -113.921875 L 69.0625 -116.640625 L 69.0625 -105.484375 L 140.28125 -108.203125 L 140.28125 -83.734375 L 69.0625 -86.453125 L 69.0625 -74.765625 L 171.546875 -79.65625 L 171.546875 0 L 7.609375 0 L 7.609375 -190.3125 L 165.578125 -190.3125 Z M 165.578125 -113.921875 "/></g></g></g><g fill="#c1ff72" fill-opacity="1"><g transform="translate(948.121191, 257.21111)"><g><path d="M 195.484375 0 L 137.5625 0 L 74.5 -106.03125 L 70.953125 -104.9375 L 88.359375 0 L 7.609375 0 L 7.609375 -190.3125 L 67.15625 -190.3125 L 128.328125 -106.03125 L 132.40625 -107.125 L 118.265625 -190.3125 L 195.484375 -190.3125 Z M 195.484375 0 "/></g></g></g><g fill="#c1ff72" fill-opacity="1"><g transform="translate(1151.185593, 257.21111)"><g><path d="M 169.375 -190.3125 L 170.1875 -106.296875 L 110.921875 -109.015625 L 123.96875 0 L 51.109375 0 L 63.890625 -109.015625 L 4.890625 -106.296875 L 5.4375 -190.3125 Z M 169.375 -190.3125 "/></g></g></g><g fill="#c1ff72" fill-opacity="1"><g transform="translate(1326.250515, 257.21111)"><g><path d="M 5.4375 -107.65625 L 5.4375 -190.3125 L 156.59375 -190.3125 L 156.59375 -107.65625 L 108.484375 -111.46875 L 109.296875 -78.84375 L 156.59375 -82.65625 L 156.59375 0 L 5.4375 0 L 5.4375 -82.65625 L 52.75 -78.84375 L 53.5625 -111.46875 Z M 5.4375 -107.65625 "/></g></g></g><g fill="#c1ff72" fill-opacity="1"><g transform="translate(1488.267063, 257.21111)"><g><path d="M 78.296875 0 L 7.609375 0 L 7.609375 -190.3125 L 163.671875 -190.3125 L 163.671875 -109.84375 L 69.0625 -114.734375 L 69.0625 -101.140625 L 140.28125 -103.859375 L 140.28125 -67.96875 L 69.0625 -71.78125 Z M 78.296875 0 "/></g></g></g><g fill="#c1ff72" fill-opacity="1"><g transform="translate(1657.351541, 257.21111)"><g><path d="M 101.953125 -115 L 112.5625 -190.3125 L 199.015625 -190.3125 L 126.421875 -74.765625 L 138.921875 0 L 60.625 0 L 73.40625 -74.765625 L 0.546875 -190.3125 L 86.734375 -190.3125 L 97.609375 -115 Z M 101.953125 -115 "/></g></g></g></svg>