<svg xmlns="http://www.w3.org/2000/svg" xmlns:xlink="http://www.w3.org/1999/xlink" width="2500" zoomAndPan="magnify" viewBox="0 0 1874.88 374.999991" height="500" preserveAspectRatio="xMidYMid meet" version="1.0"><defs><g/><clipPath id="c14991a83f"><path d="M 0 0.0117188 L 1874.761719 0.0117188 L 1874.761719 374.988281 L 0 374.988281 Z M 0 0.0117188 " clip-rule="nonzero"/></clipPath></defs><g clip-path="url(#c14991a83f)"><path stroke-linecap="butt" transform="matrix(3.669317, 0, 0, 3.669317, 17.136725, -0.307815)" fill="none" stroke-linejoin="miter" d="M 27.227479 81.095652 C 25.61146 81.095652 23.719716 81.01155 21.553313 80.843348 C 19.399685 80.67621 17.167279 80.418584 14.857158 80.071534 C 12.558748 79.724483 10.35615 79.31143 8.249363 78.833437 C 6.143641 78.34267 4.30619 77.774188 2.738076 77.126929 L 2.738076 53.445536 C 5.431442 55.659845 8.908333 57.378063 13.168748 58.599126 C 17.441938 59.819125 21.88333 60.430189 26.490796 60.430189 C 28.896727 60.430189 30.770373 60.322668 32.110669 60.10656 C 33.463739 59.891516 34.139742 59.460365 34.139742 58.81417 C 34.139742 58.13178 33.571261 57.635689 32.434299 57.32377 C 31.309046 57.001205 29.825034 56.779774 27.981196 56.659477 C 26.150133 56.528535 24.13277 56.36672 21.931236 56.175097 C 19.728638 55.983474 17.507941 55.641747 15.270212 55.152044 C 13.043128 54.661276 11.008732 53.936303 9.165959 52.979253 C 7.333831 52.021139 5.849819 50.698941 4.712856 49.011595 C 3.587604 47.311475 3.025511 45.138684 3.025511 42.494289 C 3.025511 38.915199 4.090082 36.024888 6.221354 33.822289 C 8.363272 31.60798 11.296167 29.985573 15.018973 28.956133 C 18.740715 27.926692 22.954289 27.412504 27.658631 27.412504 C 29.920845 27.412504 32.446009 27.59774 35.235186 27.969275 C 38.036074 28.339746 40.770958 28.854999 43.439839 29.512904 C 46.10872 30.171873 48.329416 30.943688 50.100863 31.829411 L 47.676833 53.086775 C 45.127185 51.518661 42.147449 50.303985 38.735497 49.441682 C 35.32461 48.580444 31.930756 48.149293 28.556065 48.149293 C 26.150133 48.149293 24.198773 48.299397 22.70305 48.598542 C 21.206263 48.897686 20.458934 49.388454 20.458934 50.070844 C 20.458934 50.80114 21.021027 51.327038 22.146279 51.650668 C 23.271532 51.973233 24.767255 52.182954 26.634513 52.278765 C 28.501771 52.374577 30.548942 52.500196 32.774961 52.655624 C 35.013755 52.799341 37.246162 53.068677 39.472181 53.463634 C 41.6982 53.846879 43.745371 54.481364 45.612629 55.367087 C 47.479888 56.252811 48.975611 57.491972 50.100863 59.083507 C 51.226115 60.675041 51.788209 62.745632 51.788209 65.295281 C 51.788209 68.778559 50.783253 71.699743 48.772277 74.056705 C 46.761302 76.40302 43.918896 78.162757 40.243995 79.335915 C 36.569094 80.509073 32.230965 81.095652 27.227479 81.095652 Z M 99.071152 28.526046 L 99.286196 51.237614 L 83.253749 50.519029 L 86.790255 80.000208 L 67.07652 80.000208 L 70.5417 50.519029 L 54.58058 51.237614 L 54.724297 28.526046 Z M 126.280535 81.095652 C 118.823212 81.095652 112.994683 79.269911 108.792819 75.619496 C 104.60373 71.968015 102.509718 66.68987 102.509718 59.783995 L 102.509718 28.526046 L 120.894868 28.526046 L 119.278849 49.406551 C 119.087226 52.207439 119.565218 54.439846 120.714956 56.102706 C 121.875338 57.766632 123.730887 58.599126 126.280535 58.599126 C 128.87809 58.599126 130.763446 57.766632 131.936604 56.102706 C 133.108697 54.439846 133.576044 52.207439 133.336515 49.406551 L 131.720496 28.526046 L 150.105646 28.526046 L 150.105646 59.783995 C 150.105646 66.594059 148.016956 71.848783 143.839578 75.547105 C 139.67391 79.245426 133.820895 81.095652 126.280535 81.095652 Z M 176.421853 80.000208 L 154.069045 80.000208 L 154.069045 28.526046 L 176.421853 28.526046 C 182.059824 28.526046 186.913206 29.507581 190.983063 31.469586 C 195.052919 33.420946 198.200857 36.299547 200.426876 40.106455 C 202.664606 43.900588 203.784535 48.592154 203.784535 54.182219 C 203.784535 59.77122 202.664606 64.481949 200.426876 68.312277 C 198.200857 72.12983 195.052919 75.032917 190.983063 77.019407 C 186.913206 79.006962 182.059824 80.000208 176.421853 80.000208 Z M 178.630839 50.214561 L 170.910567 50.214561 L 170.910567 58.239301 L 178.630839 58.239301 C 181.179424 58.239301 183.203174 57.922059 184.698897 57.287574 C 186.19462 56.641379 186.943014 55.630037 186.943014 54.253546 C 186.943014 52.889829 186.19462 51.877422 184.698897 51.219517 C 183.203174 50.548837 181.179424 50.214561 178.630839 50.214561 Z M 249.871965 49.190443 L 223.766542 48.454825 L 223.766542 51.470756 L 243.049126 50.735137 L 243.049126 57.341868 L 223.766542 56.606249 L 223.766542 59.783995 L 251.505017 58.455409 L 251.505017 80.000208 L 207.159227 80.000208 L 207.159227 28.526046 L 249.871965 28.526046 Z M 305.764098 80.000208 L 290.108509 80.000208 L 273.033847 51.327038 L 272.08212 51.614473 L 276.786462 80.000208 L 254.954229 80.000208 L 254.954229 28.526046 L 271.059067 28.526046 L 287.593992 51.327038 L 288.707533 51.022571 L 284.883593 28.526046 L 305.764098 28.526046 Z M 353.63575 28.526046 L 353.850793 51.237614 L 337.818346 50.519029 L 341.354853 80.000208 L 321.641118 80.000208 L 325.106298 50.519029 L 309.145177 51.237614 L 309.288894 28.526046 Z M 356.643164 50.878854 L 356.643164 28.526046 L 397.524839 28.526046 L 397.524839 50.878854 L 384.508323 49.854736 L 384.741465 58.670453 L 397.524839 57.6474 L 397.524839 80.000208 L 356.643164 80.000208 L 356.643164 57.6474 L 369.444637 58.670453 L 369.65968 49.854736 Z M 420.18105 80.000208 L 401.060281 80.000208 L 401.060281 28.526046 L 443.270542 28.526046 L 443.270542 50.285888 L 417.667597 48.957302 L 417.667597 52.637526 L 436.950181 51.901907 L 436.950181 61.615058 L 417.667597 60.592004 Z M 472.309923 48.885976 L 475.182137 28.526046 L 498.557998 28.526046 L 478.934752 59.783995 L 482.309443 80.000208 L 461.12447 80.000208 L 464.589651 59.783995 L 444.875915 28.526046 L 468.197484 28.526046 L 471.123991 48.885976 Z M 472.309923 48.885976 " stroke="#000000" stroke-width="5.516235" stroke-opacity="1" stroke-miterlimit="4"/></g><g fill="#c1ff72" fill-opacity="1"><g transform="translate(21.780704, 293.23752)"><g><path d="M 95.25 4.046875 C 89.3125 4.046875 82.382812 3.726562 74.46875 3.09375 C 66.5625 2.46875 58.378906 1.523438 49.921875 0.265625 C 41.460938 -0.992188 33.363281 -2.519531 25.625 -4.3125 C 17.894531 -6.113281 11.148438 -8.1875 5.390625 -10.53125 L 5.390625 -97.40625 C 15.285156 -89.3125 28.054688 -83.015625 43.703125 -78.515625 C 59.359375 -74.023438 75.644531 -71.78125 92.5625 -71.78125 C 101.375 -71.78125 108.253906 -72.179688 113.203125 -72.984375 C 118.148438 -73.796875 120.625 -75.375 120.625 -77.71875 C 120.625 -80.238281 118.550781 -82.082031 114.40625 -83.25 C 110.269531 -84.414062 104.828125 -85.222656 98.078125 -85.671875 C 91.335938 -86.117188 83.921875 -86.703125 75.828125 -87.421875 C 67.734375 -88.148438 59.59375 -89.410156 51.40625 -91.203125 C 43.21875 -93.003906 35.75 -95.65625 29 -99.15625 C 22.257812 -102.664062 16.816406 -107.523438 12.671875 -113.734375 C 8.535156 -119.941406 6.46875 -127.90625 6.46875 -137.625 C 6.46875 -150.75 10.378906 -161.359375 18.203125 -169.453125 C 26.035156 -177.554688 36.785156 -183.492188 50.453125 -187.265625 C 64.128906 -191.046875 79.601562 -192.9375 96.875 -192.9375 C 105.144531 -192.9375 114.40625 -192.257812 124.65625 -190.90625 C 134.914062 -189.5625 144.945312 -187.675781 154.75 -185.25 C 164.5625 -182.820312 172.703125 -179.988281 179.171875 -176.75 L 170.265625 -98.765625 C 160.910156 -104.515625 149.984375 -108.960938 137.484375 -112.109375 C 124.984375 -115.265625 112.523438 -116.84375 100.109375 -116.84375 C 91.296875 -116.84375 84.144531 -116.300781 78.65625 -115.21875 C 73.164062 -114.144531 70.421875 -112.347656 70.421875 -109.828125 C 70.421875 -107.128906 72.488281 -105.191406 76.625 -104.015625 C 80.769531 -102.847656 86.257812 -102.082031 93.09375 -101.71875 C 99.925781 -101.363281 107.4375 -100.914062 115.625 -100.375 C 123.8125 -99.84375 132 -98.851562 140.1875 -97.40625 C 148.375 -95.96875 155.882812 -93.628906 162.71875 -90.390625 C 169.550781 -87.160156 175.035156 -82.617188 179.171875 -76.765625 C 183.304688 -70.921875 185.375 -63.320312 185.375 -53.96875 C 185.375 -41.195312 181.6875 -30.492188 174.3125 -21.859375 C 166.9375 -13.222656 156.503906 -6.742188 143.015625 -2.421875 C 129.523438 1.890625 113.601562 4.046875 95.25 4.046875 Z M 95.25 4.046875 "/></g></g></g><g fill="#c1ff72" fill-opacity="1"><g transform="translate(212.535731, 293.23752)"><g><path d="M 168.109375 -188.890625 L 168.921875 -105.515625 L 110.09375 -108.203125 L 123.046875 0 L 50.734375 0 L 63.40625 -108.203125 L 4.859375 -105.515625 L 5.390625 -188.890625 Z M 168.109375 -188.890625 "/></g></g></g><g fill="#c1ff72" fill-opacity="1"><g transform="translate(386.292792, 293.23752)"><g><path d="M 94.171875 4.046875 C 66.828125 4.046875 45.460938 -2.648438 30.078125 -16.046875 C 14.703125 -29.453125 7.015625 -48.835938 7.015625 -74.203125 L 7.015625 -188.890625 L 74.484375 -188.890625 L 68.546875 -112.25 C 67.828125 -102 69.578125 -93.816406 73.796875 -87.703125 C 78.023438 -81.585938 84.816406 -78.53125 94.171875 -78.53125 C 103.710938 -78.53125 110.640625 -81.585938 114.953125 -87.703125 C 119.273438 -93.816406 120.984375 -102 120.078125 -112.25 L 114.140625 -188.890625 L 181.609375 -188.890625 L 181.609375 -74.203125 C 181.609375 -49.203125 173.960938 -29.910156 158.671875 -16.328125 C 143.378906 -2.742188 121.878906 4.046875 94.171875 4.046875 Z M 94.171875 4.046875 "/></g></g></g><g fill="#c1ff72" fill-opacity="1"><g transform="translate(574.889321, 293.23752)"><g><path d="M 89.59375 0 L 7.5625 0 L 7.5625 -188.890625 L 89.59375 -188.890625 C 110.28125 -188.890625 128.085938 -185.289062 143.015625 -178.09375 C 157.953125 -170.894531 169.507812 -160.328125 177.6875 -146.390625 C 185.875 -132.453125 189.96875 -115.226562 189.96875 -94.71875 C 189.96875 -74.207031 185.875 -56.9375 177.6875 -42.90625 C 169.507812 -28.875 157.953125 -18.210938 143.015625 -10.921875 C 128.085938 -3.640625 110.28125 0 89.59375 0 Z M 97.6875 -109.28125 L 69.34375 -109.28125 L 69.34375 -79.875 L 97.6875 -79.875 C 107.039062 -79.875 114.457031 -81.039062 119.9375 -83.375 C 125.425781 -85.71875 128.171875 -89.410156 128.171875 -94.453125 C 128.171875 -99.484375 125.425781 -103.210938 119.9375 -105.640625 C 114.457031 -108.066406 107.039062 -109.28125 97.6875 -109.28125 Z M 97.6875 -109.28125 "/></g></g></g><g fill="#c1ff72" fill-opacity="1"><g transform="translate(769.691484, 293.23752)"><g><path d="M 164.328125 -113.0625 L 68.546875 -115.765625 L 68.546875 -104.703125 L 139.234375 -107.390625 L 139.234375 -83.109375 L 68.546875 -85.8125 L 68.546875 -74.203125 L 170.265625 -79.0625 L 170.265625 0 L 7.5625 0 L 7.5625 -188.890625 L 164.328125 -188.890625 Z M 164.328125 -113.0625 "/></g></g></g><g fill="#c1ff72" fill-opacity="1"><g transform="translate(945.067363, 293.23752)"><g><path d="M 194.015625 0 L 136.546875 0 L 73.9375 -105.234375 L 70.421875 -104.15625 L 87.703125 0 L 7.5625 0 L 7.5625 -188.890625 L 66.65625 -188.890625 L 127.359375 -105.234375 L 131.40625 -106.3125 L 117.375 -188.890625 L 194.015625 -188.890625 Z M 194.015625 0 "/></g></g></g><g fill="#c1ff72" fill-opacity="1"><g transform="translate(1146.614727, 293.23752)"><g><path d="M 168.109375 -188.890625 L 168.921875 -105.515625 L 110.09375 -108.203125 L 123.046875 0 L 50.734375 0 L 63.40625 -108.203125 L 4.859375 -105.515625 L 5.390625 -188.890625 Z M 168.109375 -188.890625 "/></g></g></g><g fill="#c1ff72" fill-opacity="1"><g transform="translate(1320.371788, 293.23752)"><g><path d="M 5.390625 -106.859375 L 5.390625 -188.890625 L 155.4375 -188.890625 L 155.4375 -106.859375 L 107.671875 -110.640625 L 108.484375 -78.25 L 155.4375 -82.03125 L 155.4375 0 L 5.390625 0 L 5.390625 -82.03125 L 52.34375 -78.25 L 53.15625 -110.640625 Z M 5.390625 -106.859375 "/></g></g></g><g fill="#c1ff72" fill-opacity="1"><g transform="translate(1481.177955, 293.23752)"><g><path d="M 77.71875 0 L 7.5625 0 L 7.5625 -188.890625 L 162.453125 -188.890625 L 162.453125 -109.015625 L 68.546875 -113.875 L 68.546875 -100.375 L 139.234375 -103.078125 L 139.234375 -67.46875 L 68.546875 -71.234375 Z M 77.71875 0 "/></g></g></g><g fill="#c1ff72" fill-opacity="1"><g transform="translate(1648.99925, 293.23752)"><g><path d="M 101.1875 -114.140625 L 111.71875 -188.890625 L 197.53125 -188.890625 L 125.484375 -74.203125 L 137.890625 0 L 60.171875 0 L 72.859375 -74.203125 L 0.546875 -188.890625 L 86.078125 -188.890625 L 96.875 -114.140625 Z M 101.1875 -114.140625 "/></g></g></g></svg>